# xmcd
#
# Track frame offsets:
# 150
# 11809
# 27719
# 38536
# 54010
# 66381
# 80895
# 96633
# 109723
# 119605
# 131639
# 147964
# 159127
# 173431
#
# Disc length: 2505 seconds
#
#
# Revision: 0
# Processed by: cddbd v1.5.1PL0 Copyright (c) Steve Scherf et al.
# Submitted via: FreeRIP 2.90 
#
DISCID=be09c70e
DTITLE=Calvary Cowboys - Livin For Jesus
DYEAR=2004
DGENRE=Gospel
TTITLE0=That Kind Of Daddy
TTITLE1=Broken Chains
TTITLE2=Livin' For Jesus
TTITLE3=Without Love
TTITLE4=Better Get Right
TTITLE5=I Can't Make It On My Own
TTITLE6=Sprit Man
TTITLE7=God Ain't Religious
TTITLE8=We Are The Head
TTITLE9=Power In Jesus Name
TTITLE10=Second Best
TTITLE11=Righteousness Of God In Christ Jesus
TTITLE12=Come As You Are
TTITLE13=Invitation
EXTD=
EXTT0=
EXTT1=
EXTT2=
EXTT3=
EXTT4=
EXTT5=
EXTT6=
EXTT7=
EXTT8=
EXTT9=
EXTT10=
EXTT11=
EXTT12=
EXTT13=
PLAYORDER=
